<?xml version="1.0" encoding="UTF-8"?>
<svg version="1.1" xmlns="http://www.w3.org/2000/svg" width="100" height="100">
<path d="M0 0 C0.68164062 1.80786133 0.68164062 1.80786133 1 4 C-0.19726562 5.47924805 -0.19726562 5.47924805 -1.90625 7.07421875 C-6.80047453 13.18491865 -5.74563428 20.81057282 -5.5625 28.24682617 C-5.49973596 30.82333903 -5.48050352 33.39740485 -5.46875 35.97460938 C-5.45042403 37.61461327 -5.42967696 39.25459229 -5.40625 40.89453125 C-5.39775024 41.66328079 -5.38925049 42.43203033 -5.38049316 43.22407532 C-5.2792501 46.98988758 -5.13796848 48.79304728 -3 52 C-0.390379 52.38411275 2.0058074 52.60293197 4.625 52.6875 C5.33140625 52.72166016 6.0378125 52.75582031 6.765625 52.79101562 C8.50985688 52.87351308 10.25490395 52.93843335 12 53 C12.3495158 44.620578 12.3495158 44.620578 9.6328125 37.02734375 C7.84253017 35.56743169 7.84253017 35.56743169 5 34 C3.69524382 31.39048764 3.88698428 29.47298715 3.90234375 26.5546875 C3.90556641 25.47832031 3.90878906 24.40195312 3.91210938 23.29296875 C3.92048828 22.16503906 3.92886719 21.03710938 3.9375 19.875 C3.94201172 18.73933594 3.94652344 17.60367188 3.95117188 16.43359375 C3.96298385 13.62234362 3.97945493 10.8111977 4 8 C5.9375 7.4375 5.9375 7.4375 8 7 C9 8 9 8 9.09765625 11.59765625 C9.0909822 13.08596867 9.07902183 14.57426432 9.0625 16.0625 C9.05798828 16.82111328 9.05347656 17.57972656 9.04882812 18.36132812 C9.0370068 20.24091871 9.01907078 22.12046899 9 24 C10.32 24 11.64 24 13 24 C13 18.72 13 13.44 13 8 C14.32 7.67 15.64 7.34 17 7 C18.99616554 8.99616554 18.40983427 12.81701963 18.5625 15.5625 C18.60568359 16.27341797 18.64886719 16.98433594 18.69335938 17.71679688 C18.79971777 19.47761912 18.90038846 21.2387832 19 23 C19.99 23.33 20.98 23.66 22 24 C21.98839844 22.94039062 21.97679687 21.88078125 21.96484375 20.7890625 C21.95546524 19.40104342 21.94636511 18.01302245 21.9375 16.625 C21.92912109 15.92632812 21.92074219 15.22765625 21.91210938 14.5078125 C21.88671875 9.2265625 21.88671875 9.2265625 23 7 C24.32 7 25.64 7 27 7 C28.73370679 10.46741359 28.22703664 14.36697018 28.25 18.1875 C28.270625 19.02603516 28.29125 19.86457031 28.3125 20.72851562 C28.34713021 26.27367819 27.77573138 30.15453848 25 35 C24.12988281 35.65484375 23.25976562 36.3096875 22.36328125 36.984375 C19.65687101 38.87405688 19.65687101 38.87405688 19.29296875 42.453125 C19.25816406 43.70609375 19.22335938 44.9590625 19.1875 46.25 C19.0946875 49.59125 19.0946875 49.59125 19 53 C23.62 53 28.24 53 33 53 C33 38.15 33 23.3 33 8 C34.32 7.67 35.64 7.34 37 7 C45.09428945 16.14209391 46.64055287 25.64389806 46.43359375 37.671875 C45.82224343 42.3644018 44.36164576 43.80233696 41 47 C40.126062 50.22433127 40.126062 50.22433127 40 53 C41.93816735 52.8858134 43.87555099 52.75826577 45.8125 52.625 C46.89144531 52.55539063 47.97039062 52.48578125 49.08203125 52.4140625 C52.18626186 52.18804267 52.18626186 52.18804267 55 50 C55.54631383 47.37654883 55.54631383 47.37654883 55.625 44.4375 C55.91746905 39.08253095 55.91746905 39.08253095 57 38 C59.5 37.875 59.5 37.875 62 38 C63.77714844 39.77714844 63.21450494 42.28270998 63.25 44.6875 C63.19815105 49.53825719 62.98002335 52.99238239 60 57 C56.25219127 59.72291893 53.61992697 60.3800779 49.01977539 60.40405273 C47.83827408 60.41673691 46.65677277 60.42942108 45.43946838 60.44248962 C44.17167038 60.43955399 42.90387238 60.43661835 41.59765625 60.43359375 C40.28719833 60.4388356 38.97674042 60.44407745 37.62657166 60.44947815 C34.85682527 60.45839583 32.08736742 60.45600198 29.31762695 60.44604492 C25.77897912 60.43455944 22.24132985 60.45476528 18.70281315 60.48396206 C15.31354223 60.50678663 11.92450209 60.49985479 8.53515625 60.49609375 C6.63649559 60.51294472 6.63649559 60.51294472 4.69947815 60.53013611 C-6.56380702 60.44094519 -6.56380702 60.44094519 -11 56 C-13.71197551 51.65644535 -13.30609461 46.72207804 -13.30078125 41.75390625 C-13.30506638 40.86517319 -13.3093515 39.97644012 -13.31376648 39.06077576 C-13.31949622 37.18562673 -13.32002005 35.31045548 -13.31567383 33.43530273 C-13.3125145 30.57562125 -13.3359875 27.71697556 -13.36132812 24.85742188 C-13.36360141 23.0312513 -13.36430448 21.20507795 -13.36328125 19.37890625 C-13.372491 18.52873428 -13.38170074 17.67856232 -13.39118958 16.80262756 C-13.34338402 10.62999166 -11.99143218 6.60946286 -8.1875 1.625 C-5.33734149 -0.4922606 -3.46690927 -0.31517357 0 0 Z " fill="#F4AB3D" transform="translate(25,30)"/>
<path d="M0 0 C0.68164062 1.80786133 0.68164062 1.80786133 1 4 C-0.19726562 5.47924805 -0.19726562 5.47924805 -1.90625 7.07421875 C-6.80047453 13.18491865 -5.74563428 20.81057282 -5.5625 28.24682617 C-5.49973596 30.82333903 -5.48050352 33.39740485 -5.46875 35.97460938 C-5.45042403 37.61461327 -5.42967696 39.25459229 -5.40625 40.89453125 C-5.39775024 41.66328079 -5.38925049 42.43203033 -5.38049316 43.22407532 C-5.2792501 46.98988758 -5.13796848 48.79304728 -3 52 C-0.390379 52.38411275 2.0058074 52.60293197 4.625 52.6875 C5.33140625 52.72166016 6.0378125 52.75582031 6.765625 52.79101562 C8.50985688 52.87351308 10.25490395 52.93843335 12 53 C12.3495158 44.620578 12.3495158 44.620578 9.6328125 37.02734375 C7.84253017 35.56743169 7.84253017 35.56743169 5 34 C3.69524382 31.39048764 3.88698428 29.47298715 3.90234375 26.5546875 C3.90556641 25.47832031 3.90878906 24.40195312 3.91210938 23.29296875 C3.92048828 22.16503906 3.92886719 21.03710938 3.9375 19.875 C3.94201172 18.73933594 3.94652344 17.60367188 3.95117188 16.43359375 C3.96298385 13.62234362 3.97945493 10.8111977 4 8 C5.9375 7.4375 5.9375 7.4375 8 7 C9 8 9 8 9.09765625 11.59765625 C9.0909822 13.08596867 9.07902183 14.57426432 9.0625 16.0625 C9.05798828 16.82111328 9.05347656 17.57972656 9.04882812 18.36132812 C9.0370068 20.24091871 9.01907078 22.12046899 9 24 C10.32 24 11.64 24 13 24 C13 18.72 13 13.44 13 8 C14.32 7.67 15.64 7.34 17 7 C18.99616554 8.99616554 18.40983427 12.81701963 18.5625 15.5625 C18.60568359 16.27341797 18.64886719 16.98433594 18.69335938 17.71679688 C18.79971777 19.47761912 18.90038846 21.2387832 19 23 C19.99 23.33 20.98 23.66 22 24 C21.98839844 22.94039062 21.97679687 21.88078125 21.96484375 20.7890625 C21.95546524 19.40104342 21.94636511 18.01302245 21.9375 16.625 C21.92912109 15.92632812 21.92074219 15.22765625 21.91210938 14.5078125 C21.88671875 9.2265625 21.88671875 9.2265625 23 7 C24.32 7 25.64 7 27 7 C28.73370679 10.46741359 28.22703664 14.36697018 28.25 18.1875 C28.270625 19.02603516 28.29125 19.86457031 28.3125 20.72851562 C28.34713021 26.27367819 27.77573138 30.15453848 25 35 C24.12988281 35.65484375 23.25976562 36.3096875 22.36328125 36.984375 C19.65687101 38.87405688 19.65687101 38.87405688 19.29296875 42.453125 C19.25816406 43.70609375 19.22335938 44.9590625 19.1875 46.25 C19.0946875 49.59125 19.0946875 49.59125 19 53 C23.62 53 28.24 53 33 53 C33 53.33 33 53.66 33 54 C30.54137599 54.05383848 28.0839245 54.09359038 25.625 54.125 C24.92632812 54.14175781 24.22765625 54.15851563 23.5078125 54.17578125 C21.67102514 54.19344267 19.83398037 54.10303261 18 54 C16 52 16 52 15 49 C14.34 50.98 13.68 52.96 13 55 C10.58303128 55.05411124 8.16728213 55.09372278 5.75 55.125 C5.06808594 55.14175781 4.38617187 55.15851563 3.68359375 55.17578125 C-0.11070164 55.21261907 -2.81299257 55.10598732 -6 53 C-8.49929357 45.33281231 -8.42846545 37.44218848 -8.625 29.4375 C-8.66367187 28.14263672 -8.70234375 26.84777344 -8.7421875 25.51367188 C-8.83579894 22.34258424 -8.92153403 19.17149245 -9 16 C-9.99 15.67 -10.98 15.34 -12 15 C-11.859247 19.27101628 -11.71145337 23.54176247 -11.5625 27.8125 C-11.52318359 29.00810547 -11.48386719 30.20371094 -11.44335938 31.43554688 C-11.24374411 37.07083932 -11.0038432 42.70019543 -10.58984375 48.32421875 C-10.52531006 49.20553467 -10.46077637 50.08685059 -10.39428711 50.99487305 C-10.26417236 51.65656494 -10.13405762 52.31825684 -10 53 C-9.34 53.33 -8.68 53.66 -8 54 C-7.375 56.0625 -7.375 56.0625 -7 58 C-9.57000131 57.05766619 -10.76588097 56.4211885 -12.11401367 53.99584961 C-13.33068223 49.88184029 -13.30534703 46.0230659 -13.30078125 41.75390625 C-13.30506638 40.86517319 -13.3093515 39.97644012 -13.31376648 39.06077576 C-13.31949622 37.18562673 -13.32002005 35.31045548 -13.31567383 33.43530273 C-13.3125145 30.57562125 -13.3359875 27.71697556 -13.36132812 24.85742188 C-13.36360141 23.0312513 -13.36430448 21.20507795 -13.36328125 19.37890625 C-13.372491 18.52873428 -13.38170074 17.67856232 -13.39118958 16.80262756 C-13.34338402 10.62999166 -11.99143218 6.60946286 -8.1875 1.625 C-5.33734149 -0.4922606 -3.46690927 -0.31517357 0 0 Z " fill="#EFAA3F" transform="translate(25,30)"/>
<path d="M0 0 C2.39453125 1.2578125 2.39453125 1.2578125 4.8125 3.125 C6.21822266 4.20587891 6.21822266 4.20587891 7.65234375 5.30859375 C8.77042565 6.20299024 9.88607987 7.10042557 11 8 C12.03084717 8.82781982 12.03084717 8.82781982 13.08251953 9.67236328 C34.49185094 26.92617856 34.49185094 26.92617856 35.25878906 33.07470703 C35.26104492 33.79513184 35.26330078 34.51555664 35.265625 35.2578125 C35.26949219 36.44310547 35.26949219 36.44310547 35.2734375 37.65234375 C35.26570313 38.46832031 35.25796875 39.28429688 35.25 40.125 C35.26160156 41.36056641 35.26160156 41.36056641 35.2734375 42.62109375 C35.27085938 43.40871094 35.26828125 44.19632813 35.265625 45.0078125 C35.26336914 45.72598145 35.26111328 46.44415039 35.25878906 47.18408203 C35 49 35 49 33 51 C30.375 50.625 30.375 50.625 28 50 C27.94392578 48.35451172 27.94392578 48.35451172 27.88671875 46.67578125 C27.82103347 45.22132143 27.75458701 43.76689584 27.6875 42.3125 C27.65366211 41.2306543 27.65366211 41.2306543 27.61914062 40.12695312 C27.34947943 34.75824387 26.49115831 31.3140059 22.40014648 27.51391602 C20.42834742 25.83300028 18.41476172 24.22268853 16.375 22.625 C15.65731445 22.05499268 14.93962891 21.48498535 14.20019531 20.89770508 C12.77953771 19.77090469 11.35642548 18.64719092 9.93066406 17.52685547 C8.29977505 16.23707551 6.69029977 14.92028735 5.0859375 13.59765625 C4.31507812 12.96730469 3.54421875 12.33695313 2.75 11.6875 C2.10546875 11.15511719 1.4609375 10.62273438 0.796875 10.07421875 C-1.2232948 8.65791793 -1.2232948 8.65791793 -5 9 C-7.84078266 11.06437462 -10.48405954 13.23633122 -13.13476562 15.53320312 C-17.39720838 19.0396467 -17.39720838 19.0396467 -20.91015625 18.80859375 C-21.59980469 18.54175781 -22.28945313 18.27492188 -23 18 C-23.33 16.68 -23.66 15.36 -24 14 C-7.97635931 -0.92509322 -7.97635931 -0.92509322 0 0 Z " fill="#F2A834" transform="translate(53,9)"/>
<path d="M0 0 C1.98 0.495 1.98 0.495 4 1 C4 6.28 4 11.56 4 17 C5.65 17 7.3 17 9 17 C9 12.05 9 7.1 9 2 C9.99 2 10.98 2 12 2 C12.33 6.95 12.66 11.9 13 17 C14.98 17.33 16.96 17.66 19 18 C19 13.05 19 8.1 19 3 C19.66 3 20.32 3 21 3 C21.02902429 6.27081471 21.04680684 9.5415963 21.0625 12.8125 C21.07087891 13.74126953 21.07925781 14.67003906 21.08789062 15.62695312 C21.09272461 16.9659668 21.09272461 16.9659668 21.09765625 18.33203125 C21.10551147 19.56530151 21.10551147 19.56530151 21.11352539 20.82348633 C21 23 21 23 20 26 C19.34 26 18.68 26 18 26 C17.34 27.32 16.68 28.64 16 30 C14.68 30 13.36 30 12 30 C11.87625 31.134375 11.7525 32.26875 11.625 33.4375 C11.41875 34.613125 11.2125 35.78875 11 37 C10.01 37.495 10.01 37.495 9 38 C9 35.03 9 32.06 9 29 C7.02 28.67 5.04 28.34 3 28 C3 27.34 3 26.68 3 26 C1.68 25.67 0.36 25.34 -1 25 C-1.02886984 21.02084841 -1.04675406 17.04172347 -1.0625 13.0625 C-1.07087891 11.92619141 -1.07925781 10.78988281 -1.08789062 9.61914062 C-1.09111328 8.53955078 -1.09433594 7.45996094 -1.09765625 6.34765625 C-1.10289307 5.34742432 -1.10812988 4.34719238 -1.11352539 3.31665039 C-1 1 -1 1 0 0 Z " fill="#F8A529" transform="translate(30,37)"/>
<path d="M0 0 C0.66 0 1.32 0 2 0 C2.0825 1.11375 2.165 2.2275 2.25 3.375 C2.4975 4.57125 2.745 5.7675 3 7 C4.91666667 8.16666667 4.91666667 8.16666667 7 9 C9.79215474 13.7573647 9.22291646 18.98358504 9.125 24.3125 C9.11597656 25.24384766 9.10695313 26.17519531 9.09765625 27.13476562 C9.07418263 29.4234436 9.04134729 31.71158672 9 34 C8.3615918 34.28536621 7.72318359 34.57073242 7.06542969 34.86474609 C4.81993954 35.83938338 4.81993954 35.83938338 3.953125 38.1640625 C3.72109375 38.97617188 3.4890625 39.78828125 3.25 40.625 C3.00765625 41.44226563 2.7653125 42.25953125 2.515625 43.1015625 C2.34546875 43.72804687 2.1753125 44.35453125 2 45 C1.01 44.67 0.02 44.34 -1 44 C-1.02464513 37.8944529 -1.04283371 31.78893449 -1.05493164 25.68334961 C-1.05997288 23.60456844 -1.06680574 21.52579084 -1.07543945 19.44702148 C-1.08751422 16.46597414 -1.09323024 13.48497351 -1.09765625 10.50390625 C-1.10539818 9.10078941 -1.10539818 9.10078941 -1.11329651 7.66932678 C-1.11337204 6.80850998 -1.11344757 5.94769318 -1.11352539 5.06079102 C-1.115746 4.29912125 -1.11796661 3.53745148 -1.12025452 2.75270081 C-1 1 -1 1 0 0 Z " fill="#FCA117" transform="translate(60,38)"/>
<path d="M0 0 C1.32 0.33 2.64 0.66 4 1 C4.02505615 1.80107178 4.0501123 2.60214355 4.07592773 3.42749023 C4.19279735 7.09762026 4.31510745 10.76755017 4.4375 14.4375 C4.47681641 15.69755859 4.51613281 16.95761719 4.55664062 18.25585938 C4.78178694 24.88901607 5.14758434 31.4170589 6 38 C9.93603622 39.09798694 13.69073504 39.11237755 17.75 39.0625 C18.44738281 39.05798828 19.14476563 39.05347656 19.86328125 39.04882812 C21.57555803 39.0371002 23.28779033 39.01916653 25 39 C25.33 37.02 25.66 35.04 26 33 C29 35 29 35 30 38 C33.8619283 39.93096415 38.65166543 39.41789673 42.91015625 39.62109375 C44.43962891 39.80865234 44.43962891 39.80865234 46 40 C46.33 40.66 46.66 41.32 47 42 C44.27049225 43.36475387 42.03004728 43.06060095 39 43 C35.10540926 42.78918149 35.10540926 42.78918149 32 44 C28.21227558 44.23190945 24.41908123 44.18516948 20.625 44.1875 C19.06265625 44.20586914 19.06265625 44.20586914 17.46875 44.22460938 C15.95667969 44.22750977 15.95667969 44.22750977 14.4140625 44.23046875 C13.03661865 44.23663208 13.03661865 44.23663208 11.63134766 44.24291992 C8.70187575 43.97247786 6.60897335 43.35665492 4 42 C-0.99733588 33.07618593 -0.13072326 22.93960454 -0.0625 13 C-0.05798828 11.74832031 -0.05347656 10.49664062 -0.04882812 9.20703125 C-0.03711415 6.13797059 -0.02071073 3.06901093 0 0 Z " fill="#FCA116" transform="translate(13,45)"/>
<path d="M0 0 C2.5 0.125 2.5 0.125 3.5 1.125 C4.02290865 7.59096658 4.39753098 13.63958603 0.5 19.125 C-5.23127053 22.94584702 -12.95029223 21.26407961 -19.5 20.125 C-19.5 18.805 -19.5 17.485 -19.5 16.125 C-18.58476563 16.06441406 -17.66953125 16.00382812 -16.7265625 15.94140625 C-14.94378906 15.81572266 -14.94378906 15.81572266 -13.125 15.6875 C-11.34996094 15.56568359 -11.34996094 15.56568359 -9.5390625 15.44140625 C-6.58481099 15.31415064 -6.58481099 15.31415064 -4.5 14.125 C-4.06848028 11.11188185 -4.06848028 11.11188185 -3.9375 7.625 C-3.54081521 0.17704076 -3.54081521 0.17704076 0 0 Z " fill="#FAA11A" transform="translate(84.5,67.875)"/>
<path d="M0 0 C0.625 1.8125 0.625 1.8125 1 4 C-1.0586217 7.08793255 -1.8553312 7.47838607 -5 9 C-6.17469444 11.34938888 -6.20034889 12.95073205 -6.31640625 15.5703125 C-6.35830078 16.46621094 -6.40019531 17.36210938 -6.44335938 18.28515625 C-6.48267578 19.22230469 -6.52199219 20.15945312 -6.5625 21.125 C-6.62727539 22.54232422 -6.62727539 22.54232422 -6.69335938 23.98828125 C-6.79959072 26.32537092 -6.90163176 28.6625683 -7 31 C-7.33 31 -7.66 31 -8 31 C-8.33 26.05 -8.66 21.1 -9 16 C-9.99 15.67 -10.98 15.34 -12 15 C-11.859247 19.27101628 -11.71145337 23.54176247 -11.5625 27.8125 C-11.52318359 29.00810547 -11.48386719 30.20371094 -11.44335938 31.43554688 C-11.24374411 37.07083932 -11.0038432 42.70019543 -10.58984375 48.32421875 C-10.52531006 49.20553467 -10.46077637 50.08685059 -10.39428711 50.99487305 C-10.26417236 51.65656494 -10.13405762 52.31825684 -10 53 C-9.34 53.33 -8.68 53.66 -8 54 C-7.375 56.0625 -7.375 56.0625 -7 58 C-9.57000131 57.05766619 -10.76588097 56.4211885 -12.11401367 53.99584961 C-13.33068223 49.88184029 -13.30534703 46.0230659 -13.30078125 41.75390625 C-13.30506638 40.86517319 -13.3093515 39.97644012 -13.31376648 39.06077576 C-13.31949622 37.18562673 -13.32002005 35.31045548 -13.31567383 33.43530273 C-13.3125145 30.57562125 -13.3359875 27.71697556 -13.36132812 24.85742188 C-13.36360141 23.0312513 -13.36430448 21.20507795 -13.36328125 19.37890625 C-13.372491 18.52873428 -13.38170074 17.67856232 -13.39118958 16.80262756 C-13.34338402 10.62999166 -11.99143218 6.60946286 -8.1875 1.625 C-5.33734149 -0.4922606 -3.46690927 -0.31517357 0 0 Z " fill="#F1A633" transform="translate(25,30)"/>
<path d="M0 0 C0.66 0.33 1.32 0.66 2 1 C2 1.66 2 2.32 2 3 C3.2684375 2.814375 3.2684375 2.814375 4.5625 2.625 C9.22838845 3.13400601 12.03804662 5.3983348 15 9 C15 9.99 15 10.98 15 12 C15.66 12 16.32 12 17 12 C17.33 13.65 17.66 15.3 18 17 C19.32 16.67 20.64 16.34 22 16 C22 16.66 22 17.32 22 18 C22.66 18 23.32 18 24 18 C23.67 19.32 23.34 20.64 23 22 C16.25430978 20.70275188 10.64963392 16.94721049 6 12 C5.30177383 10.34630643 4.62501395 8.68272986 4 7 C1.95894361 6.11306697 1.95894361 6.11306697 0 6 C-1.125 2.25 -1.125 2.25 0 0 Z " fill="#FAA11E" transform="translate(55,13)"/>
<path d="M0 0 C0.66 0 1.32 0 2 0 C2.02902429 3.27081471 2.04680684 6.5415963 2.0625 9.8125 C2.07087891 10.74126953 2.07925781 11.67003906 2.08789062 12.62695312 C2.09111328 13.51962891 2.09433594 14.41230469 2.09765625 15.33203125 C2.10289307 16.15421143 2.10812988 16.9763916 2.11352539 17.82348633 C2 20 2 20 1 23 C0.34 23 -0.32 23 -1 23 C-1.66 24.32 -2.32 25.64 -3 27 C-4.32 27 -5.64 27 -7 27 C-7.12375 28.134375 -7.2475 29.26875 -7.375 30.4375 C-7.58125 31.613125 -7.7875 32.78875 -8 34 C-8.99 34.495 -8.99 34.495 -10 35 C-10.63019694 26.80743982 -10.63019694 26.80743982 -8 23.4375 C-7.34 22.963125 -6.68 22.48875 -6 22 C-7.32 22 -8.64 22 -10 22 C-9.34 20.68 -8.68 19.36 -8 18 C-7.01 18 -6.02 18 -5 18 C-5 17.34 -5 16.68 -5 16 C-3.35 15.67 -1.7 15.34 0 15 C0 10.05 0 5.1 0 0 Z " fill="#FCA016" transform="translate(49,40)"/>
<path d="M0 0 C1.98 0.495 1.98 0.495 4 1 C4.33 5.95 4.66 10.9 5 16 C5.99 16.33 6.98 16.66 8 17 C7.98259766 15.41058594 7.98259766 15.41058594 7.96484375 13.7890625 C7.95546524 12.40104342 7.94636511 11.01302245 7.9375 9.625 C7.92912109 8.92632812 7.92074219 8.22765625 7.91210938 7.5078125 C7.88671875 2.2265625 7.88671875 2.2265625 9 0 C10.32 0 11.64 0 13 0 C14.17426264 2.34852528 14.11508173 3.73774065 14.09765625 6.3515625 C14.09443359 7.20234375 14.09121094 8.053125 14.08789062 8.9296875 C14.07951172 9.81914063 14.07113281 10.70859375 14.0625 11.625 C14.05798828 12.5221875 14.05347656 13.419375 14.04882812 14.34375 C14.03702591 16.56256648 14.02056155 18.78125018 14 21 C13.34 21.33 12.68 21.66 12 22 C12 15.73 12 9.46 12 3 C11.34 3 10.68 3 10 3 C10 7.95 10 12.9 10 18 C8.02 18 6.04 18 4 18 C3 17 3 17 2.90234375 13.62109375 C2.90901631 12.22652923 2.92097468 10.83198257 2.9375 9.4375 C2.94201172 8.72658203 2.94652344 8.01566406 2.95117188 7.28320312 C2.96299136 5.52209987 2.98092737 3.76103964 3 2 C2.01 2 1.02 2 0 2 C0 6.95 0 11.9 0 17 C-0.33 17 -0.66 17 -1 17 C-1.02684679 14.35409986 -1.04676357 11.70846904 -1.0625 9.0625 C-1.07087891 8.30775391 -1.07925781 7.55300781 -1.08789062 6.77539062 C-1.09652441 4.85005687 -1.05224333 2.92464419 -1 1 C-0.67 0.67 -0.34 0.34 0 0 Z " fill="#E6AC49" transform="translate(39,37)"/>
<path d="M0 0 C6.02886845 4.52165134 7.57096786 10.81683311 9 18 C10.32631579 30.48947368 10.32631579 30.48947368 7.90625 35.0703125 C6.67030433 36.44278705 5.33822718 37.72705219 4 39 C3.126062 42.22433127 3.126062 42.22433127 3 45 C4.91731918 44.88544319 6.8338675 44.75793742 8.75 44.625 C10.35101563 44.52058594 10.35101563 44.52058594 11.984375 44.4140625 C14.80206432 44.0271777 16.5830366 43.44313834 19 42 C18 45 18 45 16 46 C13.62597499 46.07116382 11.24999323 46.08409085 8.875 46.0625 C7.59367187 46.05347656 6.31234375 46.04445312 4.9921875 46.03515625 C3.51105469 46.01775391 3.51105469 46.01775391 2 46 C1.609375 40.140625 1.609375 40.140625 2 38 C2.65742187 37.45730469 3.31484375 36.91460937 3.9921875 36.35546875 C7.16496843 32.63331525 6.5038888 28.78729222 6.375 24.0625 C6.37371094 23.16853516 6.37242188 22.27457031 6.37109375 21.35351562 C6.28647712 14.93406919 6.28647712 14.93406919 4 9 C1.98264795 7.65589738 1.98264795 7.65589738 0 7 C0 4.69 0 2.38 0 0 Z " fill="#EFAE47" transform="translate(62,38)"/>
<path d="M0 0 C2.5 0.125 2.5 0.125 3.5 1.125 C4.5287543 13.84594264 4.5287543 13.84594264 0.5 19.125 C-2.1875 20.5 -2.1875 20.5 -4.5 21.125 C-4.5 20.465 -4.5 19.805 -4.5 19.125 C-3.860625 18.898125 -3.22125 18.67125 -2.5625 18.4375 C-0.22806339 17.27249104 -0.22806339 17.27249104 0.25 14.5 C0.3325 13.71625 0.415 12.9325 0.5 12.125 C1.16 12.125 1.82 12.125 2.5 12.125 C2.5 10.145 2.5 8.165 2.5 6.125 C1.18 6.125 -0.14 6.125 -1.5 6.125 C-1.5 8.105 -1.5 10.085 -1.5 12.125 C-2.16 12.125 -2.82 12.125 -3.5 12.125 C-3.52687279 10.31257948 -3.54633715 8.50004767 -3.5625 6.6875 C-3.57410156 5.67816406 -3.58570312 4.66882813 -3.59765625 3.62890625 C-3.46606923 0.25501505 -3.37011816 0.16850591 0 0 Z " fill="#EFA93F" transform="translate(84.5,67.875)"/>
<path d="M0 0 C0.33 0 0.66 0 1 0 C1.02505615 0.91177002 1.0501123 1.82354004 1.07592773 2.76293945 C1.17197923 6.1979239 1.27114606 9.63279082 1.37231445 13.06762695 C1.41519861 14.54448012 1.45689827 16.02136825 1.49731445 17.49829102 C1.51799812 30.33065842 1.51799812 30.33065842 3 43 C3.66 43.33 4.32 43.66 5 44 C5.625 46.0625 5.625 46.0625 6 48 C3.43891798 47.06093659 2.2352593 46.41798248 0.87939453 44.0090332 C-0.34554821 39.81763418 -0.24678812 35.88648175 -0.1953125 31.54296875 C-0.1924826 30.64000565 -0.18965271 29.73704254 -0.18673706 28.80671692 C-0.17557607 25.93350766 -0.15047897 23.06061445 -0.125 20.1875 C-0.11496493 18.23503056 -0.10584 16.28255621 -0.09765625 14.33007812 C-0.07565008 9.55326434 -0.04114831 4.77668569 0 0 Z " fill="#EFAE47" transform="translate(12,40)"/>
<path d="M0 0 C1.32 0 2.64 0 4 0 C4 0.66 4 1.32 4 2 C4.66 2 5.32 2 6 2 C6.33 3.65 6.66 5.3 7 7 C8.32 6.67 9.64 6.34 11 6 C11 6.66 11 7.32 11 8 C11.66 8 12.32 8 13 8 C12.67 9.32 12.34 10.64 12 12 C8.44947202 11.40024865 6.45553003 10.02728246 3.75 7.6875 C2.69039063 6.79611328 2.69039063 6.79611328 1.609375 5.88671875 C0 4 0 4 0 0 Z " fill="#FBA016" transform="translate(66,23)"/>
<path d="M0 0 C0 1.98 0 3.96 0 6 C-0.5775 6.2475 -1.155 6.495 -1.75 6.75 C-4.3002997 8.16683317 -6.01785701 9.87627537 -8 12 C-8.66 11.34 -9.32 10.68 -10 10 C-8.33435265 3.8926264 -6.78451913 0 0 0 Z " fill="#FAA11B" transform="translate(24,31)"/>
<path d="M0 0 C0.66 0.33 1.32 0.66 2 1 C-0.97 3.475 -0.97 3.475 -4 6 C-3.67 6.99 -3.34 7.98 -3 9 C-1.35 8.67 0.3 8.34 2 8 C-0.1875 10.5625 -0.1875 10.5625 -3 13 C-5.8125 12.8125 -5.8125 12.8125 -8 12 C-8.33 10.68 -8.66 9.36 -9 8 C-6.03 5.36 -3.06 2.72 0 0 Z " fill="#EEA83B" transform="translate(38,15)"/>
<path d="M0 0 C0.99 0.33 1.98 0.66 3 1 C2.01 1.495 2.01 1.495 1 2 C-0.05021103 3.84971696 -0.05021103 3.84971696 -1 6 C-1.66666667 7.33333333 -2.33333333 8.66666667 -3 10 C-4.32 10 -5.64 10 -7 10 C-7.33 10.66 -7.66 11.32 -8 12 C-8.66 10.68 -9.32 9.36 -10 8 C-8.40629329 6.63353852 -6.79967018 5.28212834 -5.1875 3.9375 C-4.29417969 3.18339844 -3.40085937 2.42929688 -2.48046875 1.65234375 C-1.25263672 0.83443359 -1.25263672 0.83443359 0 0 Z " fill="#FAA018" transform="translate(43,13)"/>
<path d="M0 0 C3.66888196 2.1087808 6.9966967 4.43441887 10.3125 7.0625 C11.19550781 7.75472656 12.07851562 8.44695313 12.98828125 9.16015625 C13.65214844 9.76730469 14.31601563 10.37445313 15 11 C15 11.66 15 12.32 15 13 C12.83125748 12.49396008 11.00032373 12.00016187 9 11 C9 10.01 9 9.02 9 8 C8.34 8 7.68 8 7 8 C7 7.34 7 6.68 7 6 C5.35 6.66 3.7 7.32 2 8 C1 5 1 5 2 2 C1.34 2 0.68 2 0 2 C0 1.34 0 0.68 0 0 Z " fill="#F2AA3C" transform="translate(70,23)"/>
<path d="M0 0 C0.99 0 1.98 0 3 0 C3 4.95 3 9.9 3 15 C2.67 15 2.34 15 2 15 C1.67 17.64 1.34 20.28 1 23 C0.67 23 0.34 23 0 23 C0 15.41 0 7.82 0 0 Z " fill="#F2A325" transform="translate(30,39)"/>
<path d="M0 0 C1.98 1.32 3.96 2.64 6 4 C4.68 4.33 3.36 4.66 2 5 C3.2491742 8.45925163 4.67527795 11.14693203 7 14 C3.05860922 12.33248852 0.2107188 9.77289351 -3 7 C-2.01 6.34 -1.02 5.68 0 5 C0.25030977 2.41619823 0.25030977 2.41619823 0 0 Z " fill="#F1A93D" transform="translate(64,18)"/>
<path d="M0 0 C0.99 0.33 1.98 0.66 3 1 C3 1.66 3 2.32 3 3 C5.97 3.495 5.97 3.495 9 4 C8.67 9.61 8.34 15.22 8 21 C7.67 21 7.34 21 7 21 C6.99742188 20.04738281 6.99484375 19.09476563 6.9921875 18.11328125 C7.07892701 11.2107004 7.07892701 11.2107004 4.59765625 5.02734375 C2.78576552 3.58116656 2.78576552 3.58116656 0 2 C0 1.34 0 0.68 0 0 Z " fill="#F2B048" transform="translate(30,62)"/>
<path d="M0 0 C0.99 0 1.98 0 3 0 C3 3.3 3 6.6 3 10 C2.01 10 1.02 10 0 10 C0 6.7 0 3.4 0 0 Z " fill="#FE9E16" transform="translate(83,48)"/>
<path d="M0 0 C0.33 0 0.66 0 1 0 C1.04898437 0.78246094 1.09796875 1.56492187 1.1484375 2.37109375 C1.22320312 3.38300781 1.29796875 4.39492187 1.375 5.4375 C1.44460938 6.44683594 1.51421875 7.45617187 1.5859375 8.49609375 C1.72257813 9.32238281 1.85921875 10.14867188 2 11 C2.66 11.33 3.32 11.66 4 12 C4.625 14.0625 4.625 14.0625 5 16 C1.125 14.25 1.125 14.25 0 12 C-0.07065617 9.95944995 -0.08421976 7.91665743 -0.0625 5.875 C-0.05347656 4.77929688 -0.04445313 3.68359375 -0.03515625 2.5546875 C-0.02355469 1.71164063 -0.01195312 0.86859375 0 0 Z " fill="#F3A533" transform="translate(13,72)"/>
<path d="M0 0 C-0.33 1.32 -0.66 2.64 -1 4 C-3.4375 3.625 -3.4375 3.625 -6 3 C-6.33 2.34 -6.66 1.68 -7 1 C-4.53721199 -0.231394 -2.7204945 -0.07159196 0 0 Z " fill="#FC9F15" transform="translate(54,11)"/>
<path d="M0 0 C0.86625 0.495 0.86625 0.495 1.75 1 C4.19883862 2.27075898 4.19883862 2.27075898 8 2 C8.33 3.98 8.66 5.96 9 8 C7.68388323 7.04663979 6.37221039 6.08714226 5.0625 5.125 C4.33160156 4.59132813 3.60070312 4.05765625 2.84765625 3.5078125 C1 2 1 2 0 0 Z " fill="#EFAE43" transform="translate(71,32)"/>
</svg>
